<?xml version="1.0" standalone="no"?>
<!DOCTYPE svg PUBLIC "-//W3C//DTD SVG 20010904//EN"
 "http://www.w3.org/TR/2001/REC-SVG-20010904/DTD/svg10.dtd">
<svg version="1.0" xmlns="http://www.w3.org/2000/svg"
 width="442.000000pt" height="442.000000pt" viewBox="0 0 442.000000 442.000000"
 preserveAspectRatio="xMidYMid meet">
<metadata>
Created by potrace 1.14, written by Peter Selinger 2001-2017
</metadata>
<g transform="translate(0.000000,442.000000) scale(0.100000,-0.100000)"
fill="#000000" stroke="none">
<path d="M1977 4404 c-1 -1 -33 -5 -70 -9 -37 -3 -78 -8 -90 -11 -12 -2 -48
-9 -79 -14 -156 -29 -375 -104 -468 -161 -104 -64 -202 -215 -268 -412 -33
-97 -34 -149 -4 -214 20 -44 82 -133 93 -133 4 0 7 -19 7 -42 1 -61 17 -128
51 -201 16 -36 33 -84 36 -108 9 -60 47 -122 92 -149 82 -48 188 -73 222 -51
11 7 31 -5 75 -45 32 -30 63 -54 68 -54 4 0 8 -3 8 -8 0 -4 -25 -8 -56 -9 -66
-1 -83 -15 -144 -108 -40 -62 -48 -85 -30 -85 6 0 10 -4 10 -9 0 -5 -78 -40
-172 -77 -441 -171 -527 -220 -637 -367 -95 -125 -201 -417 -305 -837 -15 -58
-31 -118 -36 -135 -19 -62 -41 -206 -38 -247 3 -38 6 -43 36 -50 l32 -9 0
-164 c0 -91 0 -167 1 -170 39 -222 157 -364 306 -367 32 -1 81 1 108 6 l51 7
-2 -50 -2 -49 311 -2 c172 0 375 -3 452 -5 77 -2 250 -6 385 -9 135 -4 263 -8
285 -11 22 -2 74 -7 115 -10 41 -4 98 -8 125 -11 92 -7 240 -7 275 1 42 9 49
19 44 59 -3 29 -1 32 25 34 52 4 114 32 177 79 107 82 121 120 120 331 -1 91
2 122 12 123 6 1 15 2 20 3 4 1 43 6 87 10 44 5 89 10 100 11 11 2 65 9 120
15 55 6 116 13 135 15 19 2 62 7 95 10 154 15 177 20 223 42 41 20 77 76 87
133 3 19 10 58 15 85 5 28 12 64 15 80 2 17 7 41 10 55 3 14 7 41 9 60 3 19 9
60 15 90 12 62 18 97 26 155 11 69 25 159 29 180 2 11 7 42 10 68 4 27 9 58
12 70 2 12 6 39 9 62 3 22 8 47 10 55 2 8 7 35 11 60 3 25 7 52 9 60 5 29 -14
38 -73 34 -31 -1 -109 -6 -172 -9 -63 -3 -131 -8 -150 -10 -19 -2 -71 -7 -115
-10 -78 -5 -123 -10 -195 -20 -19 -3 -60 -7 -90 -10 -30 -3 -66 -7 -80 -10
-52 -10 -87 -15 -140 -21 -30 -3 -58 -8 -63 -11 -4 -2 -20 -2 -36 2 -26 6 -33
16 -66 108 -83 225 -121 269 -321 371 -81 41 -163 75 -182 75 -4 0 -8 8 -10
19 -4 27 -42 67 -79 83 -48 21 -48 36 1 57 134 60 242 207 293 400 22 84 26
121 28 277 4 220 -3 284 -50 499 -10 46 -30 95 -62 153 -29 54 -33 68 -25 95
5 18 5 42 1 53 -4 11 -8 38 -8 61 -1 51 -33 82 -156 152 -110 62 -220 94 -333
96 -45 1 -84 1 -85 0z m1970 -3346 c-3 -7 -5 -2 -5 12 0 14 2 19 5 13 2 -7 2
-19 0 -25z m-10 -60 c-3 -7 -5 -2 -5 12 0 14 2 19 5 13 2 -7 2 -19 0 -25z"/>
</g>
</svg>
